<svg width="50" height="51" viewBox="0 0 50 51" fill="none" xmlns="http://www.w3.org/2000/svg">
<path d="M17.2578 39.6718C18.3134 43.0489 21.4658 45.5 25.1908 45.5C28.9158 45.5 32.0682 43.0489 33.1238 39.6718H17.2578Z" fill="#9DA6AA"/>
<path d="M30.7351 39.6718C29.2995 42.161 26.613 43.8379 23.533 43.8379C21.6621 43.8379 19.9359 43.2192 18.5469 42.1758C20.063 44.1942 22.4765 45.4999 25.1951 45.4999C28.9201 45.4999 32.0725 43.0489 33.1281 39.6718H30.7351Z" fill="#8E989D"/>
<path d="M23.4163 9.53813V9.26721C23.4163 8.28976 24.2116 7.49447 25.1893 7.49447C26.1669 7.49447 26.9622 8.28976 26.9622 9.26721V9.53813C27.6516 9.65331 28.3186 9.83381 28.9566 10.0745V9.26721C28.9566 7.18998 27.2667 5.5 25.1893 5.5C23.1119 5.5 21.4219 7.18998 21.4219 9.26721V10.0745C22.0599 9.83397 22.7269 9.65347 23.4163 9.53813Z" fill="#9DA6AA"/>
<path d="M28.1331 9.26721V9.80106C28.415 9.88151 28.6924 9.97192 28.9641 10.0745V9.26721C28.9641 7.18998 27.2742 5.5 25.1968 5.5C25.0563 5.5 24.9177 5.50831 24.7812 5.52344C26.6637 5.73103 28.1331 7.33042 28.1331 9.26721Z" fill="#878787"/>
<path d="M35.8723 27.8323V20.0703C35.8723 14.171 31.0901 9.38879 25.1908 9.38879C19.2915 9.38879 14.5093 14.1712 14.5093 20.0703V27.8323C14.5093 29.8572 13.7505 31.8086 12.3828 33.3018L8.99157 37.0038C8.056 38.0253 8.78049 39.6716 10.1656 39.6716H40.2159C41.6011 39.6716 42.3257 38.0252 41.39 37.0038L37.9987 33.3018C36.631 31.8086 35.8723 29.8572 35.8723 27.8323Z" fill="#FF4838"/>
<path opacity="0.25" d="M41.3969 37.0046L38.0056 33.3026C36.6379 31.8096 35.8792 29.858 35.8792 27.8331V20.0711C35.8792 15.2289 32.6561 11.1416 28.239 9.83154C30.8579 11.7781 32.5551 14.8953 32.5551 18.4091V26.171C32.5551 28.1959 33.3138 30.1473 34.6815 31.6405L38.0728 35.3426C39.0083 36.3641 38.2838 38.0103 36.8987 38.0103H8.57926C8.54719 38.852 9.19489 39.6724 10.1725 39.6724H40.2228C41.6079 39.6726 42.3326 38.0261 41.3969 37.0046Z" fill="#D91313"/>
<path d="M38.9012 28.3804C38.7865 28.3804 38.67 28.3565 38.5586 28.3063C38.1406 28.1168 37.9553 27.6243 38.1446 27.2063C39.5903 24.0155 39.5903 19.8918 38.1446 16.701C37.9551 16.2828 38.1406 15.7903 38.5586 15.601C38.977 15.4119 39.4691 15.5972 39.6586 16.0151C41.293 19.6225 41.293 24.2848 39.6586 27.8923C39.5196 28.1989 39.2173 28.3804 38.9012 28.3804Z" fill="#FF4838"/>
<path d="M42.0574 30.0422C41.9427 30.0422 41.8262 30.0183 41.7149 29.9681C41.2969 29.7786 41.1115 29.2861 41.3009 28.8681C43.2041 24.6676 43.2041 19.2392 41.3009 15.0387C41.1114 14.6205 41.2969 14.128 41.7149 13.9387C42.1334 13.7499 42.6255 13.9349 42.8148 14.3527C44.9068 18.9699 44.9068 24.9369 42.8148 29.5541C42.6759 29.8607 42.3735 30.0422 42.0574 30.0422Z" fill="#FF4838"/>
<path d="M11.4832 28.3807C11.167 28.3807 10.8648 28.1992 10.7258 27.8923C9.09138 24.2849 9.09138 19.6228 10.7258 16.0151C10.9152 15.5971 11.408 15.4121 11.8258 15.6011C12.2438 15.7906 12.4291 16.2831 12.2398 16.7011C10.7942 19.892 10.7942 24.0156 12.2398 27.2064C12.4293 27.6246 12.2438 28.1171 11.8258 28.3064C11.7144 28.3567 11.5979 28.3807 11.4832 28.3807Z" fill="#FF4838"/>
<path d="M8.32642 30.0429C8.01013 30.0429 7.70797 29.8614 7.56902 29.5546C5.47699 24.9374 5.47699 18.9705 7.56902 14.3533C7.7585 13.9353 8.25096 13.7501 8.66897 13.9393C9.08698 14.1287 9.27229 14.6212 9.08299 15.0392C7.17977 19.2397 7.17977 24.6682 9.08299 28.8687C9.27246 29.2868 9.08698 29.7793 8.66897 29.9686C8.55761 30.019 8.4411 30.0429 8.32642 30.0429Z" fill="#FF4838"/>
<path d="M25.187 15.8712C23.9697 15.8712 23.0132 16.8645 23.1171 18.0208L23.9588 27.3811C24.0135 27.9889 24.547 28.456 25.187 28.456C25.8271 28.456 26.3606 27.9891 26.4151 27.3811L27.2568 18.0208C27.3608 16.8645 26.4043 15.8712 25.187 15.8712Z" fill="white"/>
<path d="M25.1894 29.7952C24.0666 29.7952 23.1562 30.663 23.1562 31.7335C23.1562 32.804 24.0666 33.6718 25.1894 33.6718C26.3123 33.6718 27.2226 32.804 27.2226 31.7335C27.2228 30.663 26.3123 29.7952 25.1894 29.7952Z" fill="white"/>
</svg>
