<svg width="24" height="24" viewBox="0 0 24 24" fill="none" xmlns="http://www.w3.org/2000/svg">
<path d="M19.6762 7.29655C18.6694 6.28742 17.4727 5.48762 16.1552 4.94327C14.8377 4.39893 13.4255 4.12082 12 4.12499H11.9616C5.98594 4.14561 1.125 9.07123 1.125 15.1059V17.25C1.125 17.7473 1.32254 18.2242 1.67417 18.5758C2.02581 18.9274 2.50272 19.125 3 19.125H21C21.4973 19.125 21.9742 18.9274 22.3258 18.5758C22.6775 18.2242 22.875 17.7473 22.875 17.25V15C22.8789 13.568 22.5981 12.1496 22.049 10.8271C21.4998 9.50468 20.6933 8.30456 19.6762 7.29655ZM20.625 16.875H11.9362L16.29 10.7812C16.3762 10.6611 16.4378 10.5251 16.4715 10.3811C16.5051 10.2371 16.5101 10.0879 16.486 9.94202C16.462 9.79612 16.4095 9.65637 16.3315 9.53077C16.2534 9.40517 16.1514 9.29616 16.0312 9.20998C15.9111 9.12381 15.7751 9.06214 15.6311 9.0285C15.4871 8.99486 15.3379 8.98992 15.192 9.01394C15.0461 9.03797 14.9064 9.0905 14.7808 9.16853C14.6552 9.24657 14.5462 9.34858 14.46 9.46874L9.17062 16.875H3.375V15.1059C3.375 14.9447 3.375 14.7844 3.38812 14.625H5.25C5.54837 14.625 5.83452 14.5065 6.0455 14.2955C6.25647 14.0845 6.375 13.7984 6.375 13.5C6.375 13.2016 6.25647 12.9155 6.0455 12.7045C5.83452 12.4935 5.54837 12.375 5.25 12.375H3.80812C4.83094 9.24467 7.55812 6.88874 10.875 6.44905V8.24999C10.875 8.54835 10.9935 8.8345 11.2045 9.04548C11.4155 9.25646 11.7016 9.37499 12 9.37499C12.2984 9.37499 12.5845 9.25646 12.7955 9.04548C13.0065 8.8345 13.125 8.54835 13.125 8.24999V6.44999C14.7476 6.66291 16.2762 7.33307 17.5322 8.38222C18.7881 9.43137 19.7197 10.8162 20.2181 12.375H18.75C18.4516 12.375 18.1655 12.4935 17.9545 12.7045C17.7435 12.9155 17.625 13.2016 17.625 13.5C17.625 13.7984 17.7435 14.0845 17.9545 14.2955C18.1655 14.5065 18.4516 14.625 18.75 14.625H20.6156C20.6212 14.7497 20.625 14.8744 20.625 15V16.875Z" />
</svg>
