<svg width="24" height="24" viewBox="0 0 24 24" fill="none" xmlns="http://www.w3.org/2000/svg">
<g clip-path="url(#clip0_4351_65253)">
<path d="M19.4062 13.875V11.5C19.4062 7.56497 16.2162 4.37499 12.2812 4.37499C8.34619 4.37499 5.15624 7.56497 5.15624 11.5V13.875M12.2812 6.75002C9.6579 6.75002 7.53123 8.87661 7.53123 11.5M20 4.96875L22.9687 2M21.1875 8.53127L23.5625 7.93747M4.5625 4.96875L1.59375 2M3.37499 8.53127L1 7.93747M6.34371 21H18.2187C19.5304 21 20.5937 19.9367 20.5937 18.625C20.5937 17.3133 19.5304 16.25 18.2187 16.25H6.34371C5.03207 16.25 3.96874 17.3133 3.96874 18.625C3.96874 19.9367 5.03207 21 6.34371 21Z" stroke="white" stroke-width="1.8" stroke-linecap="round" stroke-linejoin="round"/>
</g>
<defs>
<clipPath id="clip0_4351_65253">
<rect width="24" height="24"/>
</clipPath>
</defs>
</svg>
