<svg width="20" height="20" viewBox="0 0 20 20" fill="none" xmlns="http://www.w3.org/2000/svg">
<g id="eye">
<path id="Vector" d="M17.5617 9.52971C15.8953 5.88934 13.3763 4.05731 9.99955 4.05731C6.62104 4.05731 4.10385 5.88934 2.43744 9.53153C2.3706 9.67831 2.33594 9.83861 2.33594 10.0009C2.33594 10.1633 2.3706 10.3236 2.43744 10.4703C4.10385 14.1107 6.62279 15.9427 9.99955 15.9427C13.3781 15.9427 15.8953 14.1107 17.5617 10.4685C17.697 10.1732 17.697 9.83049 17.5617 9.52971ZM9.99955 14.6302C7.1642 14.6302 5.08822 13.1391 3.62397 10C5.08822 6.86096 7.1642 5.36981 9.99955 5.36981C12.8349 5.36981 14.9109 6.86096 16.3751 10C14.9126 13.1391 12.8367 14.6302 9.99955 14.6302ZM9.92924 6.79169C8.22065 6.79169 6.83549 8.22815 6.83549 10C6.83549 11.7719 8.22065 13.2084 9.92924 13.2084C11.6378 13.2084 13.023 11.7719 13.023 10C13.023 8.22815 11.6378 6.79169 9.92924 6.79169ZM9.92924 12.0417C8.84115 12.0417 7.96049 11.1284 7.96049 10C7.96049 8.87164 8.84115 7.95835 9.92924 7.95835C11.0173 7.95835 11.898 8.87164 11.898 10C11.898 11.1284 11.0173 12.0417 9.92924 12.0417Z" fill="#7E7E7E"/>
</g>
</svg>
