<svg width="20" height="20" viewBox="0 0 20 20" fill="none" xmlns="http://www.w3.org/2000/svg">
<g clip-path="url(#clip0_66_20786)">
<path d="M18.039 12.7198C18.0807 12.7909 18.1079 12.8695 18.119 12.9512C18.1302 13.0329 18.1251 13.1159 18.104 13.1956C18.083 13.2753 18.0463 13.35 17.9963 13.4155C17.9462 13.481 17.8837 13.5359 17.8123 13.5771C17.7409 13.6183 17.6621 13.645 17.5804 13.6557C17.4986 13.6663 17.4156 13.6606 17.336 13.639C17.2565 13.6174 17.182 13.5803 17.1169 13.5298C17.0517 13.4793 16.9972 13.4164 16.9565 13.3448L15.5204 10.8574C14.6743 11.424 13.7438 11.8532 12.7635 12.1291L13.2176 14.7045C13.2464 14.8677 13.2091 15.0357 13.114 15.1715C13.019 15.3073 12.8739 15.3997 12.7106 15.4285C12.6745 15.4349 12.638 15.438 12.6013 15.4381C12.4545 15.4378 12.3125 15.386 12.2001 15.2916C12.0877 15.1972 12.0121 15.0662 11.9866 14.9217L11.5398 12.3882C10.5169 12.5376 9.47771 12.5373 8.45491 12.3871L8.00819 14.9205C7.98269 15.0651 7.90712 15.1961 7.79471 15.2905C7.68231 15.385 7.54025 15.4369 7.39343 15.4371C7.35681 15.4371 7.32027 15.4339 7.28421 15.4276C7.12096 15.3988 6.97583 15.3063 6.88075 15.1706C6.78566 15.0348 6.74841 14.8668 6.77718 14.7035L7.2314 12.1271C6.25227 11.8508 5.32296 11.4215 4.47788 10.8551L3.03335 13.3571C2.99287 13.4293 2.93847 13.4927 2.87331 13.5436C2.80814 13.5946 2.73351 13.6321 2.65374 13.654C2.57396 13.6759 2.49064 13.6817 2.40859 13.6712C2.32654 13.6607 2.2474 13.6339 2.17576 13.5926C2.10412 13.5512 2.0414 13.496 1.99125 13.4302C1.94109 13.3644 1.9045 13.2893 1.88358 13.2093C1.86267 13.1293 1.85785 13.0459 1.86941 12.964C1.88097 12.8821 1.90868 12.8032 1.95093 12.7321L3.47413 10.0938C2.94286 9.63662 2.45433 9.13195 2.0146 8.58611C1.9623 8.52235 1.92314 8.44886 1.89937 8.36989C1.8756 8.29093 1.8677 8.20804 1.87611 8.126C1.88452 8.04396 1.90909 7.9644 1.94839 7.8919C1.98769 7.8194 2.04095 7.75539 2.1051 7.70357C2.16925 7.65175 2.24303 7.61314 2.32217 7.58996C2.40131 7.56678 2.48426 7.55949 2.56623 7.56851C2.6482 7.57753 2.72758 7.60269 2.79979 7.64253C2.87199 7.68237 2.9356 7.73611 2.98694 7.80064C3.475 8.40797 4.03199 8.95652 4.64671 9.43525C4.65163 9.43869 4.65608 9.44259 4.66085 9.44619C6.18624 10.6329 8.06828 11.2687 10.0008 11.25C11.9329 11.2686 13.8145 10.6332 15.3397 9.44697C15.3438 9.44384 15.3476 9.44064 15.3519 9.43759C15.9678 8.95831 16.5258 8.40896 17.0147 7.80064C17.1193 7.6731 17.2701 7.59208 17.4342 7.57525C17.5983 7.55843 17.7624 7.60715 17.8907 7.71081C18.019 7.81446 18.1011 7.96464 18.1192 8.12861C18.1372 8.29257 18.0897 8.45702 17.987 8.58611C17.5464 9.13301 17.0568 9.63857 16.5244 10.0965L18.039 12.7198Z" fill="#7E7E7E"/>
</g>
<defs>
<clipPath id="clip0_66_20786">
<rect width="20" height="20" fill="white"/>
</clipPath>
</defs>
</svg>
