<svg width="24" height="24" viewBox="0 0 24 24" fill="none" xmlns="http://www.w3.org/2000/svg">
<path d="M21.6061 6.32814C21.5379 6.15947 21.4297 6.00987 21.291 5.89217C21.1522 5.77447 20.987 5.69218 20.8095 5.65236C20.6319 5.61254 20.4474 5.61637 20.2716 5.66353C20.0959 5.7107 19.9342 5.79978 19.8005 5.92314L16.1649 9.28127L14.9761 9.02627L14.7183 7.8347L18.0736 4.19908C18.197 4.06533 18.2861 3.90366 18.3332 3.72793C18.3804 3.5522 18.3842 3.36765 18.3444 3.19011C18.3046 3.01257 18.2223 2.84734 18.1046 2.70858C17.9869 2.56983 17.8373 2.4617 17.6686 2.39345C16.377 1.8709 14.9606 1.73849 13.5945 2.01262C12.2285 2.28675 10.9728 2.95539 9.98278 3.93579C8.9928 4.91619 8.31199 6.16534 8.02459 7.52867C7.73719 8.89199 7.85582 10.3097 8.3658 11.6063L2.92174 16.3125C2.90111 16.3303 2.88049 16.3491 2.86174 16.3688C2.23732 17.0034 1.88898 17.8591 1.89261 18.7495C1.89623 19.6398 2.25152 20.4927 2.88109 21.1222C3.51066 21.7518 4.3635 22.1071 5.25383 22.1107C6.14417 22.1143 6.99987 21.766 7.63455 21.1416C7.65424 21.1228 7.67299 21.1022 7.6908 21.0816L12.3933 15.6375C13.6906 16.1485 15.1093 16.2676 16.4736 15.9801C17.838 15.6925 19.0879 15.011 20.0687 14.02C21.0495 13.029 21.7179 11.7719 21.9912 10.4047C22.2645 9.03743 22.1306 7.62004 21.6061 6.32814ZM14.9995 13.875C14.1757 13.8751 13.3653 13.6667 12.6436 13.2694C12.4178 13.1449 12.1562 13.1018 11.9024 13.1472C11.6486 13.1926 11.4182 13.3238 11.2495 13.5188L6.01924 19.5703C5.80789 19.7817 5.52125 19.9004 5.22236 19.9004C4.92348 19.9004 4.63683 19.7817 4.42549 19.5703C4.21414 19.359 4.09541 19.0723 4.09541 18.7735C4.09541 18.4746 4.21414 18.1879 4.42549 17.9766L10.4808 12.75C10.6761 12.5812 10.8074 12.3503 10.8526 12.0961C10.8978 11.8419 10.8543 11.5799 10.7292 11.3541C10.3199 10.6117 10.1112 9.77547 10.1237 8.92783C10.1363 8.08018 10.3697 7.25047 10.8008 6.52057C11.232 5.79067 11.846 5.18582 12.5823 4.76571C13.3187 4.34561 14.1518 4.12478 14.9995 4.12502H15.083L12.6717 6.73783C12.5497 6.87026 12.4612 7.03007 12.4137 7.20381C12.3662 7.37755 12.3611 7.56016 12.3989 7.73627L12.9295 10.2066C12.9751 10.4183 13.0808 10.6125 13.2339 10.7656C13.3871 10.9188 13.5812 11.0245 13.793 11.07L16.2633 11.6006C16.4394 11.6384 16.622 11.6334 16.7958 11.5859C16.9695 11.5384 17.1293 11.4499 17.2617 11.3278L19.8745 8.91752C19.8745 8.94564 19.8745 8.97283 19.8745 9.00095C19.8728 10.2933 19.3586 11.5321 18.4447 12.4459C17.5308 13.3596 16.2919 13.8735 14.9995 13.875Z" />
</svg>
