<svg width="32" height="32" viewBox="0 0 32 32" fill="none" xmlns="http://www.w3.org/2000/svg">
<g id="bx:dislike">
<path id="Vector" d="M3.16797 16L3.16797 15.9992C3.1678 15.8995 3.18553 15.8006 3.22029 15.7071C3.22035 15.707 3.22041 15.7068 3.22047 15.7067L6.89555 5.90778C6.89565 5.90752 6.89574 5.90727 6.89584 5.90702C7.05221 5.49465 7.32998 5.1394 7.69248 4.88819C8.05498 4.63697 8.48515 4.50162 8.92618 4.5H26.668C27.8625 4.5 28.8346 5.47214 28.8346 6.66667V18.6667C28.8346 19.8612 27.8625 20.8333 26.668 20.8333H23.2933H23.0591L22.9092 21.0132L16.6434 28.5322C16.6432 28.5324 16.6431 28.5325 16.643 28.5326C16.4827 28.7238 16.2481 28.8333 16.0013 28.8333H13.852C13.1574 28.8333 12.5 28.4965 12.0923 27.933C11.8921 27.6543 11.7609 27.332 11.7093 26.9928C11.6577 26.6533 11.6873 26.3064 11.7957 25.9805L13.2917 21.4914L13.511 20.8333H12.8173H5.33464C4.14011 20.8333 3.16797 19.8612 3.16797 18.6667L3.16797 16ZM15.376 27.1667H15.6101L15.7601 26.9868L21.7187 19.8375L21.8346 19.6984V19.5173V6.66667V6.16667H21.3346H8.9253H8.57881L8.45714 6.4911L4.86648 16.0658L4.83464 16.1507V16.2413V18.6667V19.1667H5.33464H14.6676C14.7996 19.1668 14.9296 19.1982 15.0471 19.2584C15.1645 19.3186 15.266 19.4058 15.3431 19.5129C15.4203 19.62 15.4709 19.7439 15.4908 19.8743C15.5107 20.0048 15.4993 20.1381 15.4576 20.2633L13.375 26.5085L13.1555 27.1667H13.8493H15.376ZM23.5013 18.6667V19.1667H24.0013H26.6693H27.1694L27.1693 18.6666L27.168 6.66661L27.1679 6.16667H26.668H24.0013H23.5013V6.66667V18.6667Z" />
</g>
</svg>
